<svg xmlns="http://www.w3.org/2000/svg" xmlns:xlink="http://www.w3.org/1999/xlink" fill="none" version="1.1" width="200" height="200" viewBox="0 0 200 200"><defs><clipPath id="master_svg0_2_1965"><rect x="0" y="0" width="200" height="200" rx="100"/></clipPath><filter id="master_svg1_2_1967" filterUnits="objectBoundingBox" color-interpolation-filters="sRGB" x="-0.5616438943151076" y="-0.5616438943151076" width="2.1232877886302153" height="2.1232877886302153"><feFlood flood-opacity="0" result="BackgroundImageFix"/><feBlend mode="normal" in="SourceGraphic" in2="BackgroundImageFix" result="shape"/><feGaussianBlur stdDeviation="20.5" result="effect1_foregroundBlur"/></filter><filter id="master_svg2_2_1971" filterUnits="objectBoundingBox" color-interpolation-filters="sRGB" x="-0.24324324324324326" y="-0.24324324324324326" width="1.4864864864864864" height="1.4864864864864864"><feFlood flood-opacity="0" result="BackgroundImageFix"/><feColorMatrix in="SourceAlpha" type="matrix" values="0 0 0 0 0 0 0 0 0 0 0 0 0 0 0 0 0 0 127 0"/><feMorphology radius="2" operator="dilate"/><feOffset dy="0" dx="0"/><feGaussianBlur stdDeviation="4"/><feColorMatrix type="matrix" values="0 0 0 0 0 0 0 0 0 0.5469245910644531 0 0 0 0 0.886904776096344 0 0 0 1 0"/><feBlend mode="normal" in2="BackgroundImageFix" result="effect1_dropShadow"/><feBlend mode="normal" in="SourceGraphic" in2="effect1_dropShadow" result="shape"/></filter><filter id="master_svg3_2_1975" filterUnits="objectBoundingBox" color-interpolation-filters="sRGB" x="-1.1578947368421053" y="-1.1578947368421053" width="3.1052631578947367" height="3.1052631578947367"><feFlood flood-opacity="0" result="BackgroundImageFix"/><feColorMatrix in="SourceAlpha" type="matrix" values="0 0 0 0 0 0 0 0 0 0 0 0 0 0 0 0 0 0 127 0"/><feOffset dy="-2" dx="-2"/><feGaussianBlur stdDeviation="5"/><feColorMatrix type="matrix" values="0 0 0 0 1 0 0 0 0 1 0 0 0 0 1 0 0 0 0.6000000238418579 0"/><feBlend mode="normal" in2="BackgroundImageFix" result="effect1_dropShadow"/><feBlend mode="normal" in="SourceGraphic" in2="effect1_dropShadow" result="shape"/></filter></defs><g clip-path="url(#master_svg0_2_1965)"><rect x="0" y="0" width="200" height="200" rx="100" fill="#000000" fill-opacity="1"/><ellipse cx="99.99999237060547" cy="99.99999237060547" rx="72.99999237060547" ry="72.99999237060547" fill="#0050C8" fill-opacity="1" filter="url(#master_svg1_2_1967)"/><ellipse cx="100" cy="100" rx="65" ry="65" fill="#ACFFFF" fill-opacity="0.20000000298023224"/><ellipse cx="100" cy="100" rx="56" ry="56" fill="#213B69" fill-opacity="1"/><path d="M192.785713,124.64115144726563L192.774559,124.64586644726562C189.890915,125.86469244726563,186.86412,126.81125844726563,183.72642100000002,127.45331844726563L173.999912,134.34347844726562L164.27339899999998,127.45331844726563C161.131657,126.81042844726562,158.101109,125.86225844726563,155.214108,124.64115144726563C149.440111,122.19895944726562,144.24029000000002,118.66504644726562,139.873428,114.29817244726563C135.779491,110.20423844726562,132.417643,105.37821244726562,130.001095,100.03333244726562C129.980957,99.98879244726562,129.960885,99.94421344726562,129.940879,99.89959744726562C129.8008337,99.58731044726562,129.664012,99.27326944726562,129.5304537,98.95749644726563L129.525733,98.94634244726562C129.3747578,98.58914144726562,129.2279587,98.22973644726562,129.0853977,97.86820244726563C128.0770826,95.31112644726562,127.2808237,92.64723244726562,126.7182908,89.89820444726563L119.828125,80.17169544726562L126.7182899,70.44519044726562C126.758471,70.24883244726563,126.7998447,70.05290944726562,126.8424025,69.85742144726562C127.4807734,66.92518644726562,128.3856707,64.09245644726562,129.5304527,61.38589144726563C129.6830902,61.025020447265625,129.839992,60.66638944726562,130.001095,60.310066447265626C132.417643,54.96516944726562,135.779491,50.13914444726562,139.873428,46.04520944726562C144.24029000000002,41.678343447265625,149.440111,38.144434447265624,155.214108,35.70223614726562Q155.218857,35.70022774726563,155.22361,35.69821934726562C158.107758,34.47905824726563,161.135105,33.53226424726562,164.27339899999998,32.89007424726562L173.999912,25.999908447265625L183.72642100000002,32.89007334726563C186.86412,33.53214074726563,189.890915,34.47869584726563,192.774559,35.697519347265626L192.785713,35.70223614726562C198.55972300000002,38.144434447265624,203.759537,41.67834544726563,208.12638900000002,46.04520944726562C212.493263,50.41207344726563,216.027176,55.611892447265625,218.469368,61.38589144726563Q218.471672,61.39132344726563,218.473976,61.39677444726563C219.692856,64.28051044726563,220.639455,67.30738844726562,221.28153500000002,70.44519044726562L228.171695,80.17169544726562L221.28153500000002,89.89820444726563C221.279025,89.91047644726562,221.276505,89.92274444726561,221.27398499999998,89.93500944726563C220.63205499999998,93.05957044726563,219.688156,96.07396744726563,218.474083,98.94634244726562L218.469368,98.95749644726563C218.316742,99.31837444726563,218.15983599999998,99.67700944726562,217.998734,100.03333244726562C215.58218399999998,105.37821244726562,212.220345,110.20423844726562,208.12638900000002,114.29817244726563C204.032455,118.39210544726562,199.206429,121.75397444726562,193.861549,124.17051744726562C193.505226,124.33161944726562,193.146591,124.48852544726563,192.785713,124.64115144726563Z" fill-rule="evenodd" fill="#0E2958" fill-opacity="1" transform="matrix(0.4999999701976776,0.866025447845459,-0.866025447845459,0.4999999701976776,82.43064842814056,-90.77425061911617)"/><ellipse cx="100" cy="100" rx="37" ry="37" fill="#FFFFFF" fill-opacity="1" filter="url(#master_svg2_2_1971)"/><ellipse cx="100" cy="100" rx="26" ry="26" fill="#A0B7E1" fill-opacity="1"/><ellipse cx="100.5" cy="100.5" rx="18.5" ry="18.5" fill="#2D69AA" fill-opacity="1"/><ellipse cx="100.5" cy="100.5" rx="18" ry="18" fill-opacity="0" stroke-opacity="1" stroke="#BEDDFF" fill="none" stroke-width="1"/><ellipse cx="100" cy="100" rx="14" ry="14" fill="#173E83" fill-opacity="1"/><ellipse cx="100" cy="100" rx="13.5" ry="13.5" fill-opacity="0" stroke-opacity="1" stroke="#4A8BD1" fill="none" stroke-width="1"/><ellipse cx="109.5" cy="109.5" rx="9.5" ry="9.5" fill="#FFFFFF" fill-opacity="1" filter="url(#master_svg3_2_1975)"/></g></svg>